<?xml version="1.0" standalone="no"?><!DOCTYPE svg PUBLIC "-//W3C//DTD SVG 1.1//EN" "http://www.w3.org/Graphics/SVG/1.1/DTD/svg11.dtd"><svg t="1492770291197" class="icon" style="" viewBox="0 0 1024 1024" version="1.1" xmlns="http://www.w3.org/2000/svg" p-id="2773" xmlns:xlink="http://www.w3.org/1999/xlink" width="32" height="32"><defs><style type="text/css"></style></defs><path d="M661.635507 917.742954l-0.005117 0c-16.273638-0.008186-32.097022-6.733355-42.312688-18.008142-13.921058-15.263635-58.030671-54.954613-94.13496-54.954613-35.856649 0-80.649831 39.921221-93.514837 53.901631-10.19213 11.084453-25.903973 17.700127-42.020022 17.700127-7.680936 0-14.922874-1.469468-21.540595-4.377704l-1.158383-0.503467-109.745497-61.373813-1.092891-0.76134c-19.97596-13.986549-27.579125-41.342594-17.679661-63.633273 0.076748-0.167822 10.123568-23.351847 10.123568-44.490284 0-64.145949-52.189639-116.336612-116.335588-116.336612l-3.889587 0c-0.240477 0.008186-0.478907 0.013303-0.704035 0.013303-18.378579 0-33.337269-16.322757-38.123272-41.587164-0.378623-2.025123-9.359158-49.937342-9.359158-87.687108 0-37.753859 8.977465-85.671195 9.359158-87.695295 4.840238-25.582655 20.125363-42.014906 38.82833-41.574884l3.889587 0c64.145949 0 116.335588-52.189639 116.335588-116.332519 0-21.132296-10.041704-44.311205-10.148128-44.543496-9.889231-22.26612-2.234901-49.619094 17.832134-63.560618l1.136893-0.787946 115.818819-63.620993 1.206478-0.511653c6.5246-2.780323 13.665231-4.189416 21.23258-4.189416 16.08535 0 31.823799 6.472412 42.114167 17.315364 13.70821 14.350846 57.036018 51.681056 92.107791 51.681056 34.744315 0 77.809133-36.59036 91.471294-50.692542 10.232039-10.619872 25.859971-16.98279 41.781592-16.98279 7.720845 0 14.995529 1.460258 21.627577 4.340865l1.170662 0.511653 111.865787 62.147432 1.104147 0.774643c20.016893 13.96506 27.638477 41.323151 17.730826 63.625086-0.071631 0.169869-10.123568 23.354917-10.123568 44.49233 0 64.142879 52.189639 116.332519 116.333542 116.332519l3.895727 0c18.673292-0.416486 33.979906 15.989159 38.822191 41.574884 0.38067 2.0241 9.359158 49.936319 9.359158 87.688131 0 37.754882-8.978489 85.670172-9.366322 87.693248-4.837168 25.584702-20.143783 41.955554-38.824237 41.573861l-3.886517 0c-64.143902 0-116.333542 52.190663-116.333542 116.336612 0 21.128203 10.041704 44.304042 10.144034 44.534286 9.882068 22.25691 2.243087 49.613978-17.785062 63.566758l-1.119497 0.785899-113.756857 62.872956-1.182942 0.5137C676.272879 916.317489 669.162948 917.742954 661.635507 917.742954L661.635507 917.742954zM658.180825 864.149339c0.506537 0.331551 1.946328 0.895393 3.454682 0.895393 0.062422 0 0.118704 0 0.170892-0.004093l106.279558-58.739822c-2.566452-5.956665-14.294564-34.884508-14.294564-65.050552 0-90.231047 71.064522-164.1772 160.166863-168.801521 1.280156-7.081279 8.241708-46.917566 8.241708-76.801177 0-29.882588-6.961552-69.700455-8.241708-76.8022-89.100294-4.627391-160.166863-78.573543-160.166863-168.799474 0-30.214139 11.764951-59.175751 14.307867-65.090461l-104.555288-58.089c-0.119727-0.005117-0.268106-0.016373-0.438998-0.016373-1.780553 0-3.443425 0.650823-3.996011 1.023306-1.75804 1.804089-16.909112 17.173125-38.681998 32.485879-32.225959 22.669302-62.696947 34.167171-90.574878 34.167171-28.141944 0-58.859549-11.724019-91.292216-34.839483-21.905916-15.609513-37.131689-31.275307-38.890752-33.112142-0.555655-0.376577-2.24411-1.045819-4.03899-1.045819-0.140193 0-0.26299 0.005117-0.372483 0.011256l-108.298542 59.481719c2.599198 6.033413 14.283308 34.909068 14.283308 65.024969 0 90.225931-71.063499 164.172083-160.166863 168.799474-1.279133 7.086395-8.240685 46.916543-8.240685 76.8022 0 29.879518 6.960529 69.695339 8.247848 76.795037 89.094154 4.629437 160.1597 78.57252 160.1597 168.801521 0 30.277584-11.811 59.286268-14.32731 65.12423l102.501512 57.31538c0.064468 0.00921 0.143263 0.00921 0.230244 0.00921 1.49505 0 2.914376-0.549515 3.422959-0.876973 1.916653-2.054799 17.223267-18.261922 39.277562-34.425044 32.865525-24.089651 64.0999-36.300764 92.835362-36.300764 29.004591 0 60.477396 12.443403 93.535303 36.994566C640.897184 845.551772 656.272359 862.058724 658.180825 864.149339L658.180825 864.149339zM525.556249 649.984654c-85.424578 0-154.923442-69.50091-154.923442-154.927535 0-85.424578 69.499887-154.924465 154.923442-154.924465 85.427648 0 154.931628 69.499887 154.931628 154.924465C680.487877 580.483744 610.983897 649.984654 525.556249 649.984654L525.556249 649.984654zM525.556249 392.82883c-56.367799 0-102.224196 45.858444-102.224196 102.226243 0 56.371892 45.857421 102.231359 102.224196 102.231359 56.372915 0 102.237499-45.859467 102.237499-102.231359C627.793748 438.687274 581.931211 392.82883 525.556249 392.82883L525.556249 392.82883z" p-id="2774" fill="#ffffff"></path></svg>