<?xml version="1.0" standalone="no"?><!DOCTYPE svg PUBLIC "-//W3C//DTD SVG 1.1//EN" "http://www.w3.org/Graphics/SVG/1.1/DTD/svg11.dtd"><svg t="1498635421772" class="icon" style="" viewBox="0 0 1024 1024" version="1.1" xmlns="http://www.w3.org/2000/svg" p-id="4049" xmlns:xlink="http://www.w3.org/1999/xlink" width="32" height="32"><defs><style type="text/css"></style></defs><path d="M347.246583 218.700617 932.389439 72.414903 902.095238 48.761905 902.095238 243.809524 920.562942 220.156526 335.420084 366.44224 365.714286 390.095238 365.714286 195.047619 347.246583 218.700617 347.246583 218.700617ZM335.420084 171.394621C324.566489 174.10802 316.952381 183.859989 316.952381 195.047619L316.952381 390.095238C316.952381 405.956783 331.858625 417.595226 347.246583 413.748236L932.389439 267.462522C943.243035 264.749123 950.857143 254.997154 950.857143 243.809524L950.857143 48.761905C950.857143 32.90036 935.950902 21.261917 920.562942 25.108907L335.420084 171.394621 335.420084 171.394621Z" p-id="4050" fill="#ffffff"></path><path d="M316.952381 268.190476 316.952381 853.333333 316.952381 877.714286 365.714286 877.714286 365.714286 853.333333 365.714286 268.190476 365.714286 243.809524 316.952381 243.809524 316.952381 268.190476 316.952381 268.190476Z" p-id="4051" fill="#ffffff"></path><path d="M219.428571 999.619048C300.219941 999.619048 365.714286 934.1247 365.714286 853.333333 365.714286 772.541967 300.219941 707.047619 219.428571 707.047619 138.637202 707.047619 73.142857 772.541967 73.142857 853.333333 73.142857 934.1247 138.637202 999.619048 219.428571 999.619048L219.428571 999.619048ZM219.428571 950.857143C165.567659 950.857143 121.904762 907.194246 121.904762 853.333333 121.904762 799.472421 165.567659 755.809524 219.428571 755.809524 273.289484 755.809524 316.952381 799.472421 316.952381 853.333333 316.952381 907.194246 273.289484 950.857143 219.428571 950.857143L219.428571 950.857143Z" p-id="4052" fill="#ffffff"></path><path d="M902.095238 97.52381 902.095238 682.666667 902.095238 707.047619 950.857143 707.047619 950.857143 682.666667 950.857143 97.52381 950.857143 73.142857 902.095238 73.142857 902.095238 97.52381 902.095238 97.52381Z" p-id="4053" fill="#ffffff"></path><path d="M804.571429 853.333333C885.362795 853.333333 950.857143 787.838986 950.857143 707.047619 950.857143 626.256252 885.362795 560.761905 804.571429 560.761905 723.780062 560.761905 658.285714 626.256252 658.285714 707.047619 658.285714 787.838986 723.780062 853.333333 804.571429 853.333333L804.571429 853.333333ZM804.571429 804.571429C750.710516 804.571429 707.047619 760.908532 707.047619 707.047619 707.047619 653.186706 750.710516 609.52381 804.571429 609.52381 858.432341 609.52381 902.095238 653.186706 902.095238 707.047619 902.095238 760.908532 858.432341 804.571429 804.571429 804.571429L804.571429 804.571429Z" p-id="4054" fill="#ffffff"></path></svg>