<?xml version="1.0" standalone="no"?><!DOCTYPE svg PUBLIC "-//W3C//DTD SVG 1.1//EN" "http://www.w3.org/Graphics/SVG/1.1/DTD/svg11.dtd"><svg t="1492768702781" class="icon" style="" viewBox="0 0 1024 1024" version="1.1" xmlns="http://www.w3.org/2000/svg" p-id="1366" xmlns:xlink="http://www.w3.org/1999/xlink" width="32" height="32"><defs><style type="text/css"></style></defs><path d="M271.424294 194.977693c-28.14399 20.008706-53.157687 42.681078-75.03802 67.997674-21.886473 25.326828-40.645722 52.68492-56.272631 82.072227-15.638165 29.388331-27.514657 60.497862-35.645848 93.326549-8.125051 32.828686-12.190647 66.122977-12.190647 99.884918 0 58.152445 11.099802 112.710015 33.295314 163.67271 22.196535 50.959625 52.212152 95.355765 90.040712 133.179208 37.833677 37.838793 82.229816 67.844178 133.187395 90.044806 50.958602 22.194488 105.518219 33.295314 163.664523 33.295314 57.525158 0 111.774713-11.100826 162.731268-33.295314 50.965765-22.200628 95.513354-52.212152 133.657092-90.044806 38.141692-37.824467 68.159356-82.226746 90.040712-133.179208 21.88545-50.963719 32.827663-105.520265 32.827663-163.67271 0-33.136701-3.906983-65.652256-11.724019-97.540524-7.817036-31.890314-18.916838-62.215994-33.295314-90.981131-14.386662-28.762067-32.204469-55.647391-53.461609-80.660064-21.261233-25.012673-45.019333-47.524386-71.285556-67.532069-13.756305-10.008958-28.606525-13.759375-44.549635-11.257391-15.941064 2.503007-28.92068 10.31902-38.923498 23.449062-10.008958 13.136182-13.756305 27.825742-11.258415 44.081984 2.508123 16.257266 10.31902 29.393447 23.450085 39.398312 39.389102 28.756951 69.564355 64.083527 90.512457 105.981776 20.941961 41.894156 31.416524 86.914512 31.416524 135.054929 0 41.271986-7.810896 80.201623-23.448038 116.780727-15.633049 36.57501-37.046754 68.465325-64.24214 95.664803-27.205619 27.205619-59.095933 48.776913-95.675036 64.717977-36.579103 15.943111-75.498508 23.917736-116.77254 23.917736-41.263799 0-80.189344-7.974625-116.768447-23.917736-36.582173-15.941064-68.476581-37.512359-95.670943-64.717977-27.199479-27.199479-48.77282-59.0857-64.712861-95.664803-15.948227-36.579103-23.915689-75.508741-23.915689-116.780727 0-48.76361 11.251252-94.880951 33.762965-138.337695 22.51069-43.458791 54.083779-79.249949 94.729501-107.388822 13.755282-9.384741 22.038946-22.201651 24.849968-38.457894 2.818185-16.257266-0.468674-31.266098-9.841136-45.027519-9.385764-13.130042-22.200628-21.103644-38.458917-23.910573-16.257266-2.811022-31.260981 0.461511-45.014216 9.841136l0 0L271.425318 194.977693zM512.464069 541.077246c16.261359 0 30.173207-5.785773 41.741683-17.34811 11.56643-11.571546 17.352203-25.485441 17.352203-41.742706l0-356.417549c0-16.257266-5.785773-30.326702-17.352203-42.203194-11.568477-11.881608-25.480324-17.819854-41.741683-17.819854-16.878412 0-31.103392 5.938246-42.670845 17.819854-11.565407 11.876492-17.352203 25.945929-17.352203 42.203194l0 356.417549c0 16.257266 5.786797 30.170137 17.352203 41.742706C481.360677 535.291472 495.585657 541.077246 512.464069 541.077246L512.464069 541.077246 512.464069 541.077246zM512.464069 541.077246" p-id="1367" fill="#ffffff"></path></svg>